<svg width="134.28000488281248px" height="124.439990234375px" xmlns="http://www.w3.org/2000/svg" viewBox="182.85999755859376 12.780004882812499 134.28000488281248 124.439990234375" style="background:#596886" preserveAspectRatio="xMidYMid"><defs><filter id="editing-hover" x="-100%" y="-100%" width="300%" height="300%"><feFlood flood-color="#052b4a" result="flood"></feFlood><feComposite operator="in" in2="SourceAlpha" in="flood" result="shadow"></feComposite><feOffset dx="-4" dy="-4" in="SourceGraphic" result="offset-1"></feOffset><feOffset dx="4" dy="4" in="shadow" result="offset-2"></feOffset><feMerge><feMergeNode in="offset-2"></feMergeNode><feMergeNode in="offset-1"></feMergeNode></feMerge></filter></defs><g filter="url(#editing-hover)"><g transform="translate(209.3291099667549, 97.3700008392334)"><path d="M0.45-0.32L0.45-0.32L8.51-42.24L8.51-42.24Q16.06-42.88 20.93-42.88L20.93-42.88L20.93-42.88Q25.79-42.88 28.93-42.46L28.93-42.46L28.93-42.46Q32.06-42.05 34.18-40.96L34.18-40.96L34.18-40.96Q38.40-38.91 38.40-33.28L38.40-33.28L38.40-33.28Q38.40-30.02 35.58-27.26L35.58-27.26L35.58-27.26Q32.96-24.77 30.08-24.19L30.08-24.19L30.08-24.19Q33.15-23.68 35.33-21.38L35.33-21.38L35.33-21.38Q37.63-18.94 37.63-15.17L37.63-15.17L37.63-15.17Q37.63-7.87 32.19-3.62L32.19-3.62L32.19-3.62Q26.75 0.64 16.06 0.64L16.06 0.64L16.06 0.64Q8.70 0.64 0.45-0.32ZM17.86-20.61L14.66-4.03L14.66-4.03Q15.23-3.97 15.36-3.97L15.36-3.97L15.94-3.97L15.94-3.97Q21.18-3.97 23.42-7.42L23.42-7.42L23.42-7.42Q25.09-10.11 25.09-15.04L25.09-15.04L25.09-15.04Q25.09-17.66 23.39-19.07L23.39-19.07L23.39-19.07Q21.70-20.48 17.86-20.61L17.86-20.61ZM27.58-33.22L27.58-33.22L27.58-33.22Q27.58-38.53 22.46-38.53L22.46-38.53L21.89-38.53L21.89-38.53Q21.63-38.53 21.25-38.46L21.25-38.46L18.69-24.96L19.33-24.96L19.33-24.96Q27.58-25.15 27.58-33.22ZM75.26-13.25L75.26-13.25L75.26-13.25Q76.93-12.03 76.93-9.44L76.93-9.44L76.93-9.44Q76.93-6.85 75.81-5.02L75.81-5.02L75.81-5.02Q74.69-3.20 72.51-1.79L72.51-1.79L72.51-1.79Q67.84 1.22 59.68 1.22L59.68 1.22L59.68 1.22Q51.52 1.22 47.07-3.04L47.07-3.04L47.07-3.04Q42.62-7.30 42.62-14.85L42.62-14.85L42.62-14.85Q42.62-25.54 48.19-33.66L48.19-33.66L48.19-33.66Q52.42-39.68 59.97-42.24L59.97-42.24L59.97-42.24Q63.87-43.52 67.71-43.52L67.71-43.52L67.71-43.52Q71.55-43.52 73.92-43.01L73.92-43.01L73.92-43.01Q76.29-42.50 78.08-41.47L78.08-41.47L78.08-41.47Q81.98-39.23 81.98-35.65L81.98-35.65L81.98-35.65Q81.98-32.38 78.91-29.95L78.91-29.95L78.91-29.95Q76.10-27.78 73.79-27.78L73.79-27.78L73.79-27.78Q71.49-27.78 70.53-28.10L70.53-28.10L70.53-28.10Q70.78-30.40 70.78-31.90L70.78-31.90L70.78-31.90Q70.78-33.41 70.72-34.50L70.72-34.50L70.72-34.50Q70.66-35.58 70.34-36.61L70.34-36.61L70.34-36.61Q69.70-38.98 67.74-38.98L67.74-38.98L67.74-38.98Q65.79-38.98 63.84-37.15L63.84-37.15L63.84-37.15Q61.89-35.33 60.22-32.26L60.22-32.26L60.22-32.26Q56.45-25.28 56.45-17.02L56.45-17.02L56.45-17.02Q56.45-13.06 58.69-10.78L58.69-10.78L58.69-10.78Q60.93-8.51 65.73-8.51L65.73-8.51L65.73-8.51Q69.31-8.51 72.70-10.88L72.70-10.88L72.70-10.88Q74.18-11.90 75.26-13.25Z" fill="#ffd5af"></path></g></g><style>text {
  font-size: 64px;
  font-family: Arial Black;
  dominant-baseline: central;
  text-anchor: middle;
}</style></svg>